<svg width="18" height="3" viewBox="0 0 18 3" fill="none" xmlns="http://www.w3.org/2000/svg">
<path d="M16 3C15.1716 3 14.5 2.32843 14.5 1.5C14.5 0.671573 15.1716 5.75748e-07 16 6.11959e-07C16.8284 6.48171e-07 17.5 0.671574 17.5 1.5C17.5 2.32843 16.8284 3 16 3Z" fill="#BDBDBD"/>
<path d="M9 3C8.17157 3 7.5 2.32843 7.5 1.5C7.5 0.671573 8.17157 2.69768e-07 9 3.0598e-07C9.82843 3.42192e-07 10.5 0.671573 10.5 1.5C10.5 2.32843 9.82843 3 9 3Z" fill="#BDBDBD"/>
<path d="M2 3C1.17157 3 0.5 2.32843 0.5 1.5C0.5 0.671573 1.17157 -3.62117e-08 2 0C2.82843 3.62117e-08 3.5 0.671573 3.5 1.5C3.5 2.32843 2.82843 3 2 3Z" fill="#BDBDBD"/>
</svg>
