<svg width="15" height="20" viewBox="0 0 15 20" fill="none" xmlns="http://www.w3.org/2000/svg">
<path fill-rule="evenodd" clip-rule="evenodd" d="M2 11.942V19.25C2 19.6642 1.66421 20 1.25 20C0.835787 20 0.5 19.6642 0.5 19.25V0.75C0.5 0.335786 0.835787 0 1.25 0C1.2546 0 1.2592 4.14861e-05 1.26378 0.000124109C1.26844 4.14849e-05 1.2731 0 1.27778 0L1.28193 0.000667348C1.34205 0.00318523 1.40034 0.0127803 1.45599 0.0286412L13.7222 2C14.0368 2 14.3204 2.19068 14.4408 2.48312C14.5612 2.77556 14.4946 3.11217 14.2722 3.336L10.637 6L14.2722 9.664C14.4946 9.88783 14.5612 10.2244 14.4408 10.5169C14.3204 10.8093 14.0368 11 13.7222 11L2 11.942ZM11.8445 9.43478L2.05555 10.4348L2.05555 1.56522L11.8445 3.56522L8.98705 5.44661C8.68331 5.75224 8.68331 6.24776 8.98705 6.55339L11.8445 9.43478Z" fill="#BDBDBD"/>
</svg>
