<svg width="18" height="19" viewBox="0 0 18 19" fill="none" xmlns="http://www.w3.org/2000/svg">
<path d="M3 18.8C2.3 18.8 1.70833 18.5583 1.225 18.075C0.741667 17.5917 0.5 17 0.5 16.3V14.8C0.5 14.2477 0.947715 13.8 1.5 13.8H3.5V1.08497C3.5 0.658144 4.00034 0.427564 4.32483 0.704851L4.55591 0.902327C4.74044 1.06001 5.01156 1.0624 5.19883 0.907981L5.97908 0.264619C6.16506 0.111269 6.43397 0.112439 6.61861 0.267401L7.37856 0.905223C7.56446 1.06124 7.83554 1.06124 8.02144 0.905224L8.77857 0.269776C8.96446 0.113759 9.23554 0.113759 9.42144 0.269776L10.1786 0.905223C10.3645 1.06124 10.6355 1.06124 10.8214 0.905224L11.5786 0.269777C11.7645 0.113759 12.0355 0.113759 12.2214 0.269776L12.9786 0.905223C13.1645 1.06124 13.4355 1.06124 13.6214 0.905224L14.3814 0.267401C14.566 0.112439 14.8349 0.111269 15.0209 0.264619L15.8012 0.907981C15.9884 1.0624 16.2596 1.06001 16.4441 0.902327L16.6752 0.704852C16.9997 0.427564 17.5 0.658143 17.5 1.08497V16.3C17.5 17 17.2583 17.5917 16.775 18.075C16.2917 18.5583 15.7 18.8 15 18.8H3ZM15 17.3C15.2833 17.3 15.5207 17.204 15.712 17.012C15.904 16.8207 16 16.5833 16 16.3V2.3H5V13.8H13C13.5523 13.8 14 14.2477 14 14.8V16.3C14 16.5833 14.096 16.8207 14.288 17.012C14.4793 17.204 14.7167 17.3 15 17.3ZM6.95 6.05C6.53579 6.05 6.2 5.71421 6.2 5.3C6.2 4.88579 6.53579 4.55 6.95 4.55H14.125C14.5392 4.55 14.875 4.88579 14.875 5.3C14.875 5.71421 14.5392 6.05 14.125 6.05H6.95ZM6.95 9.05C6.53579 9.05 6.2 8.71421 6.2 8.3C6.2 7.88579 6.53579 7.55 6.95 7.55H12.125C12.5392 7.55 12.875 7.88579 12.875 8.3C12.875 8.71421 12.5392 9.05 12.125 9.05H6.95ZM3 17.3H12.5V15.3H2V16.3C2 16.5833 2.09567 16.8207 2.287 17.012C2.479 17.204 2.71667 17.3 3 17.3Z" fill="#BDBDBD"/>
</svg>
